<mxfile host="app.diagrams.net" modified="2022-07-15T04:49:19.135Z" agent="5.0 (Windows NT 10.0; Win64; x64) AppleWebKit/537.36 (KHTML, like Gecko) Chrome/102.0.5005.63 Safari/537.36" etag="7SLyCNKczzbczzm3xDnP" version="20.1.1" type="github">
  <diagram id="oeTSigCYyxhaa_dpOPq2" name="Page-1">
    <mxGraphModel dx="2062" dy="1122" grid="0" gridSize="10" guides="1" tooltips="1" connect="1" arrows="1" fold="1" page="1" pageScale="1" pageWidth="827" pageHeight="1169" math="0" shadow="0">
      <root>
        <mxCell id="0" />
        <mxCell id="1" parent="0" />
        <mxCell id="MxFPvDd8OGy84KUWA6-Q-1" value="&lt;font style=&quot;font-size: 24px;&quot;&gt;智慧交通检测系统&lt;/font&gt;" style="ellipse;whiteSpace=wrap;html=1;aspect=fixed;fillColor=#d5e8d4;strokeColor=#82b366;" vertex="1" parent="1">
          <mxGeometry x="216" y="390" width="228" height="228" as="geometry" />
        </mxCell>
        <mxCell id="MxFPvDd8OGy84KUWA6-Q-2" value="用户实时视频流数据" style="rounded=1;whiteSpace=wrap;html=1;fontSize=24;fillColor=#f8cecc;strokeColor=#b85450;" vertex="1" parent="1">
          <mxGeometry x="24" y="188" width="240" height="120" as="geometry" />
        </mxCell>
        <mxCell id="MxFPvDd8OGy84KUWA6-Q-4" value="" style="shape=flexArrow;endArrow=classic;html=1;rounded=0;fontSize=24;" edge="1" parent="1" target="MxFPvDd8OGy84KUWA6-Q-1">
          <mxGeometry width="50" height="50" relative="1" as="geometry">
            <mxPoint x="142" y="316" as="sourcePoint" />
            <mxPoint x="376" y="509" as="targetPoint" />
          </mxGeometry>
        </mxCell>
        <mxCell id="MxFPvDd8OGy84KUWA6-Q-5" value="固定视频流数据" style="rounded=1;whiteSpace=wrap;html=1;fontSize=24;fillColor=#f8cecc;strokeColor=#b85450;" vertex="1" parent="1">
          <mxGeometry x="395" y="188" width="240" height="120" as="geometry" />
        </mxCell>
        <mxCell id="MxFPvDd8OGy84KUWA6-Q-6" value="" style="shape=flexArrow;endArrow=classic;html=1;rounded=0;fontSize=24;fillColor=#dae8fc;strokeColor=#6c8ebf;" edge="1" parent="1" target="MxFPvDd8OGy84KUWA6-Q-1">
          <mxGeometry width="50" height="50" relative="1" as="geometry">
            <mxPoint x="512" y="316" as="sourcePoint" />
            <mxPoint x="619.3898269447336" y="423.3898269447336" as="targetPoint" />
          </mxGeometry>
        </mxCell>
        <mxCell id="MxFPvDd8OGy84KUWA6-Q-9" value="" style="endArrow=none;html=1;rounded=0;fontSize=24;" edge="1" parent="1">
          <mxGeometry width="50" height="50" relative="1" as="geometry">
            <mxPoint x="170" y="396" as="sourcePoint" />
            <mxPoint x="220" y="346" as="targetPoint" />
          </mxGeometry>
        </mxCell>
        <mxCell id="MxFPvDd8OGy84KUWA6-Q-10" value="解耦" style="whiteSpace=wrap;html=1;fontSize=24;strokeColor=none;" vertex="1" parent="1">
          <mxGeometry x="108" y="394" width="58" height="40" as="geometry" />
        </mxCell>
        <mxCell id="MxFPvDd8OGy84KUWA6-Q-11" value="模拟输入" style="whiteSpace=wrap;html=1;fontSize=24;strokeColor=none;fontStyle=1" vertex="1" parent="1">
          <mxGeometry x="480" y="374" width="116" height="40" as="geometry" />
        </mxCell>
        <mxCell id="MxFPvDd8OGy84KUWA6-Q-13" value="实时结果&lt;br&gt;数据队列" style="rounded=1;whiteSpace=wrap;html=1;fontSize=24;fillColor=#fff2cc;strokeColor=#d6b656;" vertex="1" parent="1">
          <mxGeometry x="210" y="713" width="240" height="120" as="geometry" />
        </mxCell>
        <mxCell id="MxFPvDd8OGy84KUWA6-Q-14" value="用户实时视频流数据" style="rounded=1;whiteSpace=wrap;html=1;fontSize=24;fillColor=#e1d5e7;strokeColor=#9673a6;" vertex="1" parent="1">
          <mxGeometry x="212" y="928" width="240" height="120" as="geometry" />
        </mxCell>
        <mxCell id="MxFPvDd8OGy84KUWA6-Q-20" value="" style="shape=flexArrow;endArrow=classic;html=1;rounded=0;fontSize=24;fillColor=#dae8fc;strokeColor=#6c8ebf;" edge="1" parent="1">
          <mxGeometry width="50" height="50" relative="1" as="geometry">
            <mxPoint x="332" y="619" as="sourcePoint" />
            <mxPoint x="332" y="712" as="targetPoint" />
          </mxGeometry>
        </mxCell>
        <mxCell id="MxFPvDd8OGy84KUWA6-Q-21" value="" style="shape=flexArrow;endArrow=classic;html=1;rounded=0;fontSize=24;" edge="1" parent="1">
          <mxGeometry width="50" height="50" relative="1" as="geometry">
            <mxPoint x="332" y="834" as="sourcePoint" />
            <mxPoint x="332" y="927" as="targetPoint" />
          </mxGeometry>
        </mxCell>
        <mxCell id="MxFPvDd8OGy84KUWA6-Q-22" value="数据收集" style="rounded=1;whiteSpace=wrap;html=1;fontSize=24;fillColor=#ffe6cc;strokeColor=#d79b00;" vertex="1" parent="1">
          <mxGeometry x="572" y="713" width="240" height="120" as="geometry" />
        </mxCell>
        <mxCell id="MxFPvDd8OGy84KUWA6-Q-23" value="" style="shape=flexArrow;endArrow=classic;html=1;rounded=0;fontSize=24;entryX=0;entryY=0.5;entryDx=0;entryDy=0;" edge="1" parent="1" target="MxFPvDd8OGy84KUWA6-Q-22">
          <mxGeometry width="50" height="50" relative="1" as="geometry">
            <mxPoint x="448" y="772" as="sourcePoint" />
            <mxPoint x="665" y="826" as="targetPoint" />
          </mxGeometry>
        </mxCell>
        <mxCell id="MxFPvDd8OGy84KUWA6-Q-24" value="收集输出" style="whiteSpace=wrap;html=1;fontSize=24;strokeColor=none;fontStyle=1" vertex="1" parent="1">
          <mxGeometry x="450" y="718" width="116" height="40" as="geometry" />
        </mxCell>
      </root>
    </mxGraphModel>
  </diagram>
</mxfile>
